<?xml version="1.0" encoding="UTF-8" standalone="no"?>
<!DOCTYPE svg PUBLIC "-//W3C//DTD SVG 1.1//EN"
 "http://www.w3.org/Graphics/SVG/1.1/DTD/svg11.dtd">
<!-- Generated by graphviz version 2.40.1 (20161225.0304)
 -->
<!-- Title: %3 Pages: 1 -->
<svg width="3534pt" height="394pt"
 viewBox="0.00 0.00 3534.43 394.00" xmlns="http://www.w3.org/2000/svg" xmlns:xlink="http://www.w3.org/1999/xlink">
<g id="graph0" class="graph" transform="scale(1 1) rotate(0) translate(4 390)">
<title>%3</title>
<polygon fill="#ffffff" stroke="transparent" points="-4,4 -4,-390 3530.4302,-390 3530.4302,4 -4,4"/>
<!-- gtk_init -->
<g id="node1" class="node">
<title>gtk_init</title>
<ellipse fill="#00ff00" stroke="#000000" cx="201.7901" cy="-304" rx="38.1938" ry="18"/>
<text text-anchor="middle" x="201.7901" y="-300.3" font-family="Times,serif" font-size="14.00" fill="#000000">gtk_init</text>
</g>
<!-- gtk_init_check -->
<g id="node5" class="node">
<title>gtk_init_check</title>
<ellipse fill="#00ff00" stroke="#000000" cx="567.3108" cy="-341" rx="63.0888" ry="18"/>
<text text-anchor="middle" x="567.3108" y="-337.3" font-family="Times,serif" font-size="14.00" fill="#000000">gtk_init_check</text>
</g>
<!-- gtk_init&#45;&gt;gtk_init_check -->
<g id="edge4" class="edge">
<title>gtk_init&#45;&gt;gtk_init_check</title>
<path fill="none" stroke="#000000" d="M239.5305,-307.8203C300.3663,-313.9784 421.0347,-326.1931 497.7685,-333.9606"/>
<polygon fill="#000000" stroke="#000000" points="497.5274,-337.4539 507.829,-334.9789 498.2324,-330.4895 497.5274,-337.4539"/>
</g>
<!-- root -->
<g id="node2" class="node">
<title>root</title>
<ellipse fill="none" stroke="#000000" cx="27" cy="-214" rx="27" ry="18"/>
<text text-anchor="middle" x="27" y="-210.3" font-family="Times,serif" font-size="14.00" fill="#000000">root</text>
</g>
<!-- root&#45;&gt;gtk_init -->
<g id="edge1" class="edge">
<title>root&#45;&gt;gtk_init</title>
<path fill="none" stroke="#000000" d="M48.4327,-225.0358C77.9725,-240.2459 131.5495,-267.8329 166.9053,-286.0377"/>
<polygon fill="#000000" stroke="#000000" points="165.424,-289.2117 175.9169,-290.6778 168.6285,-282.9882 165.424,-289.2117"/>
</g>
<!-- g_cclosure_marshal_generic -->
<g id="node3" class="node">
<title>g_cclosure_marshal_generic</title>
<ellipse fill="#00ff00" stroke="#000000" cx="201.7901" cy="-137" rx="111.5806" ry="18"/>
<text text-anchor="middle" x="201.7901" y="-133.3" font-family="Times,serif" font-size="14.00" fill="#000000">g_cclosure_marshal_generic</text>
</g>
<!-- root&#45;&gt;g_cclosure_marshal_generic -->
<g id="edge2" class="edge">
<title>root&#45;&gt;g_cclosure_marshal_generic</title>
<path fill="none" stroke="#000000" d="M49.8508,-203.9336C76.1566,-192.3451 120.0897,-172.9913 153.9668,-158.0675"/>
<polygon fill="#000000" stroke="#000000" points="155.4918,-161.2203 163.2322,-153.9858 152.6698,-154.8144 155.4918,-161.2203"/>
</g>
<!-- g_main_context_dispatch -->
<g id="node4" class="node">
<title>g_main_context_dispatch</title>
<ellipse fill="#00ff00" stroke="#000000" cx="201.7901" cy="-214" rx="101.2821" ry="18"/>
<text text-anchor="middle" x="201.7901" y="-210.3" font-family="Times,serif" font-size="14.00" fill="#000000">g_main_context_dispatch</text>
</g>
<!-- root&#45;&gt;g_main_context_dispatch -->
<g id="edge3" class="edge">
<title>root&#45;&gt;g_main_context_dispatch</title>
<path fill="none" stroke="#000000" d="M54.311,-214C64.5636,-214 76.9544,-214 90.1457,-214"/>
<polygon fill="#000000" stroke="#000000" points="90.367,-217.5001 100.367,-214 90.367,-210.5001 90.367,-217.5001"/>
</g>
<!-- ffi_call -->
<g id="node6" class="node">
<title>ffi_call</title>
<ellipse fill="#00ff00" stroke="#000000" cx="567.3108" cy="-114" rx="36.2938" ry="18"/>
<text text-anchor="middle" x="567.3108" y="-110.3" font-family="Times,serif" font-size="14.00" fill="#000000">ffi_call</text>
</g>
<!-- g_cclosure_marshal_generic&#45;&gt;ffi_call -->
<g id="edge5" class="edge">
<title>g_cclosure_marshal_generic&#45;&gt;ffi_call</title>
<path fill="none" stroke="#000000" d="M306.0445,-130.4399C376.8653,-125.9836 467.1045,-120.3054 520.872,-116.9221"/>
<polygon fill="#000000" stroke="#000000" points="521.3623,-120.3983 531.1227,-116.2771 520.9226,-113.4121 521.3623,-120.3983"/>
</g>
<!-- gtk_main_do_event -->
<g id="node7" class="node">
<title>gtk_main_do_event</title>
<ellipse fill="#00ff00" stroke="#000000" cx="567.3108" cy="-260" rx="81.4863" ry="18"/>
<text text-anchor="middle" x="567.3108" y="-256.3" font-family="Times,serif" font-size="14.00" fill="#000000">gtk_main_do_event</text>
</g>
<!-- g_main_context_dispatch&#45;&gt;gtk_main_do_event -->
<g id="edge6" class="edge">
<title>g_main_context_dispatch&#45;&gt;gtk_main_do_event</title>
<path fill="none" stroke="#000000" d="M284.7324,-224.4381C345.0639,-232.0307 426.3297,-242.2578 486.2256,-249.7956"/>
<polygon fill="#000000" stroke="#000000" points="486.0392,-253.2997 496.398,-251.0758 486.9133,-246.3544 486.0392,-253.2997"/>
</g>
<!-- g_hash_table_lookup -->
<g id="node8" class="node">
<title>g_hash_table_lookup</title>
<ellipse fill="#00ff00" stroke="#000000" cx="2354.2215" cy="-262" rx="85.5853" ry="18"/>
<text text-anchor="middle" x="2354.2215" y="-258.3" font-family="Times,serif" font-size="14.00" fill="#000000">g_hash_table_lookup</text>
</g>
<!-- g_main_context_dispatch&#45;&gt;g_hash_table_lookup -->
<g id="edge7" class="edge">
<title>g_main_context_dispatch&#45;&gt;g_hash_table_lookup</title>
<path fill="none" stroke="#000000" d="M303.3786,-214C448.9766,-214 725.4069,-214 960.7791,-214 960.7791,-214 960.7791,-214 1820.7624,-214 1986.0795,-214 2027.8288,-216.7247 2192.1326,-235 2221.2989,-238.2441 2253.1971,-243.2406 2280.9224,-248.0574"/>
<polygon fill="#000000" stroke="#000000" points="2280.48,-251.5332 2290.9354,-249.8203 2281.6938,-244.6393 2280.48,-251.5332"/>
</g>
<!-- gtk_widget_get_preferred_height_and_baseline_for_width -->
<g id="node9" class="node">
<title>gtk_widget_get_preferred_height_and_baseline_for_width</title>
<ellipse fill="#00ff00" stroke="#000000" cx="567.3108" cy="-168" rx="217.9616" ry="18"/>
<text text-anchor="middle" x="567.3108" y="-164.3" font-family="Times,serif" font-size="14.00" fill="#000000">gtk_widget_get_preferred_height_and_baseline_for_width</text>
</g>
<!-- g_main_context_dispatch&#45;&gt;gtk_widget_get_preferred_height_and_baseline_for_width -->
<g id="edge8" class="edge">
<title>g_main_context_dispatch&#45;&gt;gtk_widget_get_preferred_height_and_baseline_for_width</title>
<path fill="none" stroke="#000000" d="M284.7324,-203.5619C329.8539,-197.8834 386.6849,-190.7314 437.5282,-184.3329"/>
<polygon fill="#000000" stroke="#000000" points="438.1271,-187.7852 447.6118,-183.0639 437.253,-180.84 438.1271,-187.7852"/>
</g>
<!-- gdk_display_manager_open_display -->
<g id="node10" class="node">
<title>gdk_display_manager_open_display</title>
<ellipse fill="#00ff00" stroke="#000000" cx="960.7791" cy="-368" rx="139.9756" ry="18"/>
<text text-anchor="middle" x="960.7791" y="-364.3" font-family="Times,serif" font-size="14.00" fill="#000000">gdk_display_manager_open_display</text>
</g>
<!-- gtk_init_check&#45;&gt;gdk_display_manager_open_display -->
<g id="edge9" class="edge">
<title>gtk_init_check&#45;&gt;gdk_display_manager_open_display</title>
<path fill="none" stroke="#000000" d="M628.7903,-345.2188C681.6256,-348.8443 759.6868,-354.2009 826.8421,-358.8092"/>
<polygon fill="#000000" stroke="#000000" points="826.877,-362.3197 837.0932,-359.5126 827.3563,-355.3361 826.877,-362.3197"/>
</g>
<!-- balsa_command_line_cb -->
<g id="node11" class="node">
<title>balsa_command_line_cb</title>
<ellipse fill="#00ff00" stroke="#000000" cx="960.7791" cy="-114" rx="98.5829" ry="18"/>
<text text-anchor="middle" x="960.7791" y="-110.3" font-family="Times,serif" font-size="14.00" fill="#000000">balsa_command_line_cb</text>
</g>
<!-- ffi_call&#45;&gt;balsa_command_line_cb -->
<g id="edge10" class="edge">
<title>ffi_call&#45;&gt;balsa_command_line_cb</title>
<path fill="none" stroke="#000000" d="M603.9741,-114C659.9233,-114 768.8415,-114 851.6924,-114"/>
<polygon fill="#000000" stroke="#000000" points="851.9176,-117.5001 861.9175,-114 851.9175,-110.5001 851.9176,-117.5001"/>
</g>
<!-- gtk_widget_activate -->
<g id="node12" class="node">
<title>gtk_widget_activate</title>
<ellipse fill="#00ff00" stroke="#000000" cx="960.7791" cy="-314" rx="81.7856" ry="18"/>
<text text-anchor="middle" x="960.7791" y="-310.3" font-family="Times,serif" font-size="14.00" fill="#000000">gtk_widget_activate</text>
</g>
<!-- gtk_main_do_event&#45;&gt;gtk_widget_activate -->
<g id="edge11" class="edge">
<title>gtk_main_do_event&#45;&gt;gtk_widget_activate</title>
<path fill="none" stroke="#000000" d="M636.7493,-269.5298C704.9844,-278.8945 809.0232,-293.1729 880.7092,-303.0111"/>
<polygon fill="#000000" stroke="#000000" points="880.66,-306.5371 891.043,-304.4293 881.6118,-299.6021 880.66,-306.5371"/>
</g>
<!-- gtk_widget_unparent -->
<g id="node14" class="node">
<title>gtk_widget_unparent</title>
<ellipse fill="#00ff00" stroke="#000000" cx="960.7791" cy="-260" rx="85.2851" ry="18"/>
<text text-anchor="middle" x="960.7791" y="-256.3" font-family="Times,serif" font-size="14.00" fill="#000000">gtk_widget_unparent</text>
</g>
<!-- gtk_main_do_event&#45;&gt;gtk_widget_unparent -->
<g id="edge13" class="edge">
<title>gtk_main_do_event&#45;&gt;gtk_widget_unparent</title>
<path fill="none" stroke="#000000" d="M648.8377,-260C711.8917,-260 799.3239,-260 865.5853,-260"/>
<polygon fill="#000000" stroke="#000000" points="865.6163,-263.5001 875.6163,-260 865.6163,-256.5001 865.6163,-263.5001"/>
</g>
<!-- gtk_widget_get_preferred_height -->
<g id="node13" class="node">
<title>gtk_widget_get_preferred_height</title>
<ellipse fill="#00ff00" stroke="#000000" cx="960.7791" cy="-168" rx="128.0773" ry="18"/>
<text text-anchor="middle" x="960.7791" y="-164.3" font-family="Times,serif" font-size="14.00" fill="#000000">gtk_widget_get_preferred_height</text>
</g>
<!-- gtk_widget_get_preferred_height_and_baseline_for_width&#45;&gt;gtk_widget_get_preferred_height -->
<g id="edge12" class="edge">
<title>gtk_widget_get_preferred_height_and_baseline_for_width&#45;&gt;gtk_widget_get_preferred_height</title>
<path fill="none" stroke="#000000" d="M785.0468,-168C797.6674,-168 810.1714,-168 822.3478,-168"/>
<polygon fill="#000000" stroke="#000000" points="822.4943,-171.5001 832.4942,-168 822.4942,-164.5001 822.4943,-171.5001"/>
</g>
<!-- g_signal_emit_by_name -->
<g id="node15" class="node">
<title>g_signal_emit_by_name</title>
<ellipse fill="#00ff00" stroke="#000000" cx="1234.658" cy="-368" rx="98.2828" ry="18"/>
<text text-anchor="middle" x="1234.658" y="-364.3" font-family="Times,serif" font-size="14.00" fill="#000000">g_signal_emit_by_name</text>
</g>
<!-- gdk_display_manager_open_display&#45;&gt;g_signal_emit_by_name -->
<g id="edge14" class="edge">
<title>gdk_display_manager_open_display&#45;&gt;g_signal_emit_by_name</title>
<path fill="none" stroke="#000000" d="M1100.5267,-368C1109.1523,-368 1117.763,-368 1126.2219,-368"/>
<polygon fill="#000000" stroke="#000000" points="1126.4554,-371.5001 1136.4554,-368 1126.4553,-364.5001 1126.4554,-371.5001"/>
</g>
<!-- balsa_activate_cb -->
<g id="node16" class="node">
<title>balsa_activate_cb</title>
<ellipse fill="#00ff00" stroke="#000000" cx="1234.658" cy="-114" rx="73.387" ry="18"/>
<text text-anchor="middle" x="1234.658" y="-110.3" font-family="Times,serif" font-size="14.00" fill="#000000">balsa_activate_cb</text>
</g>
<!-- balsa_command_line_cb&#45;&gt;balsa_activate_cb -->
<g id="edge15" class="edge">
<title>balsa_command_line_cb&#45;&gt;balsa_activate_cb</title>
<path fill="none" stroke="#000000" d="M1059.6557,-114C1089.535,-114 1122.0406,-114 1150.8374,-114"/>
<polygon fill="#000000" stroke="#000000" points="1150.8582,-117.5001 1160.8582,-114 1150.8581,-110.5001 1150.8582,-117.5001"/>
</g>
<!-- sw_close_activated -->
<g id="node17" class="node">
<title>sw_close_activated</title>
<ellipse fill="#00ff00" stroke="#000000" cx="1234.658" cy="-314" rx="79.0865" ry="18"/>
<text text-anchor="middle" x="1234.658" y="-310.3" font-family="Times,serif" font-size="14.00" fill="#000000">sw_close_activated</text>
</g>
<!-- gtk_widget_activate&#45;&gt;sw_close_activated -->
<g id="edge16" class="edge">
<title>gtk_widget_activate&#45;&gt;sw_close_activated</title>
<path fill="none" stroke="#000000" d="M1042.9518,-314C1075.0801,-314 1112.0238,-314 1144.8516,-314"/>
<polygon fill="#000000" stroke="#000000" points="1144.8976,-317.5001 1154.8975,-314 1144.8975,-310.5001 1144.8976,-317.5001"/>
</g>
<!-- gtk_css_provider_load_from_path -->
<g id="node18" class="node">
<title>gtk_css_provider_load_from_path</title>
<ellipse fill="#00ff00" stroke="#000000" cx="1512.4366" cy="-310" rx="131.8766" ry="18"/>
<text text-anchor="middle" x="1512.4366" y="-306.3" font-family="Times,serif" font-size="14.00" fill="#000000">gtk_css_provider_load_from_path</text>
</g>
<!-- g_signal_emit_by_name&#45;&gt;gtk_css_provider_load_from_path -->
<g id="edge17" class="edge">
<title>g_signal_emit_by_name&#45;&gt;gtk_css_provider_load_from_path</title>
<path fill="none" stroke="#000000" d="M1299.4342,-354.4748C1338.4678,-346.3246 1388.5463,-335.8682 1430.3376,-327.1422"/>
<polygon fill="#000000" stroke="#000000" points="1431.1455,-330.5491 1440.219,-325.079 1429.7147,-323.6969 1431.1455,-330.5491"/>
</g>
<!-- g_object_notify -->
<g id="node21" class="node">
<title>g_object_notify</title>
<ellipse fill="#00ff00" stroke="#000000" cx="1512.4366" cy="-368" rx="66.0889" ry="18"/>
<text text-anchor="middle" x="1512.4366" y="-364.3" font-family="Times,serif" font-size="14.00" fill="#000000">g_object_notify</text>
</g>
<!-- g_signal_emit_by_name&#45;&gt;g_object_notify -->
<g id="edge20" class="edge">
<title>g_signal_emit_by_name&#45;&gt;g_object_notify</title>
<path fill="none" stroke="#000000" d="M1332.9833,-368C1366.7823,-368 1404.0946,-368 1435.9011,-368"/>
<polygon fill="#000000" stroke="#000000" points="1436.0231,-371.5001 1446.0231,-368 1436.023,-364.5001 1436.0231,-371.5001"/>
</g>
<!-- balsa_window_new -->
<g id="node19" class="node">
<title>balsa_window_new</title>
<ellipse fill="#00ff00" stroke="#000000" cx="1512.4366" cy="-62" rx="80.6858" ry="18"/>
<text text-anchor="middle" x="1512.4366" y="-58.3" font-family="Times,serif" font-size="14.00" fill="#000000">balsa_window_new</text>
</g>
<!-- balsa_activate_cb&#45;&gt;balsa_window_new -->
<g id="edge18" class="edge">
<title>balsa_activate_cb&#45;&gt;balsa_window_new</title>
<path fill="none" stroke="#000000" d="M1293.2283,-103.0357C1336.2332,-94.9852 1394.8912,-84.0044 1440.7075,-75.4276"/>
<polygon fill="#000000" stroke="#000000" points="1441.389,-78.861 1450.5742,-73.5806 1440.1009,-71.9805 1441.389,-78.861"/>
</g>
<!-- balsa_check_open_compose_window -->
<g id="node20" class="node">
<title>balsa_check_open_compose_window</title>
<ellipse fill="#00ff00" stroke="#000000" cx="1512.4366" cy="-116" rx="143.7746" ry="18"/>
<text text-anchor="middle" x="1512.4366" y="-112.3" font-family="Times,serif" font-size="14.00" fill="#000000">balsa_check_open_compose_window</text>
</g>
<!-- balsa_activate_cb&#45;&gt;balsa_check_open_compose_window -->
<g id="edge19" class="edge">
<title>balsa_activate_cb&#45;&gt;balsa_check_open_compose_window</title>
<path fill="none" stroke="#000000" d="M1308.3683,-114.5307C1324.0212,-114.6434 1341.1025,-114.7664 1358.5025,-114.8917"/>
<polygon fill="#000000" stroke="#000000" points="1358.7508,-118.3935 1368.7758,-114.9656 1358.8013,-111.3936 1358.7508,-118.3935"/>
</g>
<!-- gtk_css_provider_load_from_file -->
<g id="node22" class="node">
<title>gtk_css_provider_load_from_file</title>
<ellipse fill="#00ff00" stroke="#000000" cx="1820.7624" cy="-308" rx="128.8774" ry="18"/>
<text text-anchor="middle" x="1820.7624" y="-304.3" font-family="Times,serif" font-size="14.00" fill="#000000">gtk_css_provider_load_from_file</text>
</g>
<!-- gtk_css_provider_load_from_path&#45;&gt;gtk_css_provider_load_from_file -->
<g id="edge21" class="edge">
<title>gtk_css_provider_load_from_path&#45;&gt;gtk_css_provider_load_from_file</title>
<path fill="none" stroke="#000000" d="M1644.5362,-309.1431C1656.7948,-309.0636 1669.2433,-308.9829 1681.5632,-308.9029"/>
<polygon fill="#000000" stroke="#000000" points="1681.8976,-312.4009 1691.8746,-308.836 1681.8521,-305.4011 1681.8976,-312.4009"/>
</g>
<!-- gtk_widget_realize -->
<g id="node24" class="node">
<title>gtk_widget_realize</title>
<ellipse fill="#00ff00" stroke="#000000" cx="2354.2215" cy="-75" rx="77.9862" ry="18"/>
<text text-anchor="middle" x="2354.2215" y="-71.3" font-family="Times,serif" font-size="14.00" fill="#000000">gtk_widget_realize</text>
</g>
<!-- balsa_window_new&#45;&gt;gtk_widget_realize -->
<g id="edge23" class="edge">
<title>balsa_window_new&#45;&gt;gtk_widget_realize</title>
<path fill="none" stroke="#000000" d="M1593.1504,-63.2465C1751.5564,-65.6928 2101.9734,-71.1044 2266.1392,-73.6397"/>
<polygon fill="#000000" stroke="#000000" points="2266.1494,-77.1402 2276.2023,-73.7951 2266.2576,-70.141 2266.1494,-77.1402"/>
</g>
<!-- balsa_register_pixmaps -->
<g id="node25" class="node">
<title>balsa_register_pixmaps</title>
<ellipse fill="#00ff00" stroke="#000000" cx="1820.7624" cy="-18" rx="94.4839" ry="18"/>
<text text-anchor="middle" x="1820.7624" y="-14.3" font-family="Times,serif" font-size="14.00" fill="#000000">balsa_register_pixmaps</text>
</g>
<!-- balsa_window_new&#45;&gt;balsa_register_pixmaps -->
<g id="edge24" class="edge">
<title>balsa_window_new&#45;&gt;balsa_register_pixmaps</title>
<path fill="none" stroke="#000000" d="M1580.4817,-52.2895C1626.0242,-45.7903 1686.3303,-37.1843 1735.1323,-30.2199"/>
<polygon fill="#000000" stroke="#000000" points="1735.6411,-33.6829 1745.0463,-28.8052 1734.6521,-26.7531 1735.6411,-33.6829"/>
</g>
<!-- sendmsg_window_compose -->
<g id="node23" class="node">
<title>sendmsg_window_compose</title>
<ellipse fill="#00ff00" stroke="#000000" cx="1820.7624" cy="-164" rx="110.4804" ry="18"/>
<text text-anchor="middle" x="1820.7624" y="-160.3" font-family="Times,serif" font-size="14.00" fill="#000000">sendmsg_window_compose</text>
</g>
<!-- balsa_check_open_compose_window&#45;&gt;sendmsg_window_compose -->
<g id="edge22" class="edge">
<title>balsa_check_open_compose_window&#45;&gt;sendmsg_window_compose</title>
<path fill="none" stroke="#000000" d="M1602.8612,-130.0773C1643.1583,-136.3507 1690.5074,-143.722 1730.7556,-149.9878"/>
<polygon fill="#000000" stroke="#000000" points="1730.4072,-153.4756 1740.8266,-151.5556 1731.484,-146.5589 1730.4072,-153.4756"/>
</g>
<!-- add_attachment -->
<g id="node26" class="node">
<title>add_attachment</title>
<ellipse fill="#00ff00" stroke="#000000" cx="1820.7624" cy="-110" rx="66.8882" ry="18"/>
<text text-anchor="middle" x="1820.7624" y="-106.3" font-family="Times,serif" font-size="14.00" fill="#000000">add_attachment</text>
</g>
<!-- balsa_check_open_compose_window&#45;&gt;add_attachment -->
<g id="edge25" class="edge">
<title>balsa_check_open_compose_window&#45;&gt;add_attachment</title>
<path fill="none" stroke="#000000" d="M1654.4163,-113.2371C1685.1078,-112.6398 1716.4475,-112.03 1743.5285,-111.503"/>
<polygon fill="#000000" stroke="#000000" points="1743.7588,-114.9992 1753.6888,-111.3052 1743.6226,-108.0006 1743.7588,-114.9992"/>
</g>
<!-- gtk_css_provider_load_from_file&#45;&gt;g_hash_table_lookup -->
<g id="edge26" class="edge">
<title>gtk_css_provider_load_from_file&#45;&gt;g_hash_table_lookup</title>
<path fill="none" stroke="#000000" d="M1947.8103,-305.0812C2019.6743,-302.5338 2111.1034,-297.7926 2192.1326,-289 2221.3075,-285.8342 2253.2074,-280.8531 2280.9316,-276.0267"/>
<polygon fill="#000000" stroke="#000000" points="2281.7049,-279.4444 2290.9441,-274.2592 2280.4879,-272.551 2281.7049,-279.4444"/>
</g>
<!-- g_intern_string -->
<g id="node30" class="node">
<title>g_intern_string</title>
<ellipse fill="#00ff00" stroke="#000000" cx="2088.7918" cy="-262" rx="64.189" ry="18"/>
<text text-anchor="middle" x="2088.7918" y="-258.3" font-family="Times,serif" font-size="14.00" fill="#000000">g_intern_string</text>
</g>
<!-- gtk_css_provider_load_from_file&#45;&gt;g_intern_string -->
<g id="edge30" class="edge">
<title>gtk_css_provider_load_from_file&#45;&gt;g_intern_string</title>
<path fill="none" stroke="#000000" d="M1902.2717,-294.0111C1941.2676,-287.3185 1987.3087,-279.4168 2023.8905,-273.1386"/>
<polygon fill="#000000" stroke="#000000" points="2024.68,-276.5543 2033.9439,-271.4132 2023.4959,-269.6552 2024.68,-276.5543"/>
</g>
<!-- sendmsg_window_new -->
<g id="node27" class="node">
<title>sendmsg_window_new</title>
<ellipse fill="#00ff00" stroke="#000000" cx="2088.7918" cy="-152" rx="93.6835" ry="18"/>
<text text-anchor="middle" x="2088.7918" y="-148.3" font-family="Times,serif" font-size="14.00" fill="#000000">sendmsg_window_new</text>
</g>
<!-- sendmsg_window_compose&#45;&gt;sendmsg_window_new -->
<g id="edge27" class="edge">
<title>sendmsg_window_compose&#45;&gt;sendmsg_window_new</title>
<path fill="none" stroke="#000000" d="M1927.4649,-159.2228C1947.2311,-158.3378 1967.8252,-157.4158 1987.427,-156.5382"/>
<polygon fill="#000000" stroke="#000000" points="1987.7439,-160.0276 1997.5773,-156.0838 1987.4308,-153.0346 1987.7439,-160.0276"/>
</g>
<!-- gtk_menu_bar_new_from_model -->
<g id="node28" class="node">
<title>gtk_menu_bar_new_from_model</title>
<ellipse fill="#00ff00" stroke="#000000" cx="2646.2987" cy="-111" rx="129.9769" ry="18"/>
<text text-anchor="middle" x="2646.2987" y="-107.3" font-family="Times,serif" font-size="14.00" fill="#000000">gtk_menu_bar_new_from_model</text>
</g>
<!-- gtk_widget_realize&#45;&gt;gtk_menu_bar_new_from_model -->
<g id="edge28" class="edge">
<title>gtk_widget_realize&#45;&gt;gtk_menu_bar_new_from_model</title>
<path fill="none" stroke="#000000" d="M2423.0698,-83.4859C2457.5945,-87.7412 2500.1962,-92.9921 2538.8972,-97.7622"/>
<polygon fill="#000000" stroke="#000000" points="2538.8173,-101.2788 2549.1704,-99.0284 2539.6737,-94.3314 2538.8173,-101.2788"/>
</g>
<!-- gtk_widget_get_preferred_width -->
<g id="node31" class="node">
<title>gtk_widget_get_preferred_width</title>
<ellipse fill="#00ff00" stroke="#000000" cx="2646.2987" cy="-39" rx="126.1777" ry="18"/>
<text text-anchor="middle" x="2646.2987" y="-35.3" font-family="Times,serif" font-size="14.00" fill="#000000">gtk_widget_get_preferred_width</text>
</g>
<!-- gtk_widget_realize&#45;&gt;gtk_widget_get_preferred_width -->
<g id="edge31" class="edge">
<title>gtk_widget_realize&#45;&gt;gtk_widget_get_preferred_width</title>
<path fill="none" stroke="#000000" d="M2423.0698,-66.5141C2458.0589,-62.2015 2501.3439,-56.8664 2540.457,-52.0455"/>
<polygon fill="#000000" stroke="#000000" points="2541.3371,-55.4636 2550.8338,-50.7665 2540.4808,-48.5162 2541.3371,-55.4636"/>
</g>
<!-- gtk_icon_theme_has_icon -->
<g id="node29" class="node">
<title>gtk_icon_theme_has_icon</title>
<ellipse fill="#00ff00" stroke="#000000" cx="2088.7918" cy="-18" rx="103.1819" ry="18"/>
<text text-anchor="middle" x="2088.7918" y="-14.3" font-family="Times,serif" font-size="14.00" fill="#000000">gtk_icon_theme_has_icon</text>
</g>
<!-- balsa_register_pixmaps&#45;&gt;gtk_icon_theme_has_icon -->
<g id="edge29" class="edge">
<title>balsa_register_pixmaps&#45;&gt;gtk_icon_theme_has_icon</title>
<path fill="none" stroke="#000000" d="M1915.2595,-18C1934.5996,-18 1955.1456,-18 1975.0782,-18"/>
<polygon fill="#000000" stroke="#000000" points="1975.1197,-21.5001 1985.1197,-18 1975.1197,-14.5001 1975.1197,-21.5001"/>
</g>
<!-- sendmsg_window_new&#45;&gt;gtk_widget_realize -->
<g id="edge32" class="edge">
<title>sendmsg_window_new&#45;&gt;gtk_widget_realize</title>
<path fill="none" stroke="#000000" d="M2140.5994,-136.9708C2185.1081,-124.0591 2249.2492,-105.452 2295.621,-91.9997"/>
<polygon fill="#000000" stroke="#000000" points="2296.6042,-95.3589 2305.2331,-89.2113 2294.6539,-88.6361 2296.6042,-95.3589"/>
</g>
<!-- libbalsa_window_get_menu_bar -->
<g id="node33" class="node">
<title>libbalsa_window_get_menu_bar</title>
<ellipse fill="#00ff00" stroke="#000000" cx="2354.2215" cy="-152" rx="126.1777" ry="18"/>
<text text-anchor="middle" x="2354.2215" y="-148.3" font-family="Times,serif" font-size="14.00" fill="#000000">libbalsa_window_get_menu_bar</text>
</g>
<!-- sendmsg_window_new&#45;&gt;libbalsa_window_get_menu_bar -->
<g id="edge34" class="edge">
<title>sendmsg_window_new&#45;&gt;libbalsa_window_get_menu_bar</title>
<path fill="none" stroke="#000000" d="M2182.7459,-152C2194.0497,-152 2205.7647,-152 2217.5214,-152"/>
<polygon fill="#000000" stroke="#000000" points="2217.8546,-155.5001 2227.8546,-152 2217.8546,-148.5001 2217.8546,-155.5001"/>
</g>
<!-- gtk_menu_shell_bind_model -->
<g id="node32" class="node">
<title>gtk_menu_shell_bind_model</title>
<ellipse fill="#00ff00" stroke="#000000" cx="2926.677" cy="-111" rx="114.2798" ry="18"/>
<text text-anchor="middle" x="2926.677" y="-107.3" font-family="Times,serif" font-size="14.00" fill="#000000">gtk_menu_shell_bind_model</text>
</g>
<!-- gtk_menu_bar_new_from_model&#45;&gt;gtk_menu_shell_bind_model -->
<g id="edge33" class="edge">
<title>gtk_menu_bar_new_from_model&#45;&gt;gtk_menu_shell_bind_model</title>
<path fill="none" stroke="#000000" d="M2776.6381,-111C2785.0765,-111 2793.5628,-111 2801.9738,-111"/>
<polygon fill="#000000" stroke="#000000" points="2802.1879,-114.5001 2812.1878,-111 2802.1878,-107.5001 2802.1879,-114.5001"/>
</g>
<!-- g_intern_string&#45;&gt;g_hash_table_lookup -->
<g id="edge35" class="edge">
<title>g_intern_string&#45;&gt;g_hash_table_lookup</title>
<path fill="none" stroke="#000000" d="M2153.3838,-262C2184.8087,-262 2223.2248,-262 2258.0124,-262"/>
<polygon fill="#000000" stroke="#000000" points="2258.1981,-265.5001 2268.198,-262 2258.198,-258.5001 2258.1981,-265.5001"/>
</g>
<!-- gtk_widget_get_preferred_width&#45;&gt;gtk_widget_get_preferred_width -->
<g id="edge36" class="edge">
<title>gtk_widget_get_preferred_width&#45;&gt;gtk_widget_get_preferred_width</title>
<path fill="none" stroke="#000000" d="M2597.08,-55.6641C2586.1425,-65.625 2602.5487,-75 2646.2987,-75 2674.3261,-75 2691.1315,-71.1525 2696.7151,-65.7682"/>
<polygon fill="#000000" stroke="#000000" points="2700.1703,-65.1826 2695.5175,-55.6641 2693.2189,-66.0065 2700.1703,-65.1826"/>
</g>
<!-- g_object_bind_property -->
<g id="node34" class="node">
<title>g_object_bind_property</title>
<ellipse fill="#00ff00" stroke="#000000" cx="3171.9585" cy="-111" rx="94.7833" ry="18"/>
<text text-anchor="middle" x="3171.9585" y="-107.3" font-family="Times,serif" font-size="14.00" fill="#000000">g_object_bind_property</text>
</g>
<!-- gtk_menu_shell_bind_model&#45;&gt;g_object_bind_property -->
<g id="edge37" class="edge">
<title>gtk_menu_shell_bind_model&#45;&gt;g_object_bind_property</title>
<path fill="none" stroke="#000000" d="M3041.4181,-111C3049.839,-111 3058.3097,-111 3066.6707,-111"/>
<polygon fill="#000000" stroke="#000000" points="3066.804,-114.5001 3076.804,-111 3066.804,-107.5001 3066.804,-114.5001"/>
</g>
<!-- g_object_bind_property_full -->
<g id="node35" class="node">
<title>g_object_bind_property_full</title>
<ellipse fill="#00ff00" stroke="#000000" cx="3414.6401" cy="-111" rx="111.5806" ry="18"/>
<text text-anchor="middle" x="3414.6401" y="-107.3" font-family="Times,serif" font-size="14.00" fill="#000000">g_object_bind_property_full</text>
</g>
<!-- g_object_bind_property&#45;&gt;g_object_bind_property_full -->
<g id="edge38" class="edge">
<title>g_object_bind_property&#45;&gt;g_object_bind_property_full</title>
<path fill="none" stroke="#000000" d="M3267.1762,-111C3275.5752,-111 3284.1494,-111 3292.7275,-111"/>
<polygon fill="#000000" stroke="#000000" points="3292.789,-114.5001 3302.789,-111 3292.7889,-107.5001 3292.789,-114.5001"/>
</g>
</g>
</svg>
